<svg xmlns="http://www.w3.org/2000/svg" fill="none" viewBox="0 0 24 24" stroke-width="1.5" stroke="#d1d5db">
  <path stroke-linecap="round" stroke-linejoin="round" d="M12 21a9 9 0 010-18c4.97 0 9 3.582 9 8c0 1.06-.474 2.078-1.318 2.828c-.844.75-1.989 1.172-3.182 1.172h-2.5a2 2 0 00-1 3.75a1.3 1.3 0 01-1 2.25" />
  <path stroke-linecap="round" stroke-linejoin="round" d="M8.5 10.5m-1 0a1 1 0 102 0a1 1 0 10-2 0" />
  <path stroke-linecap="round" stroke-linejoin="round" d="M12.5 7.5m-1 0a1 1 0 102 0a1 1 0 10-2 0" />
  <path stroke-linecap="round" stroke-linejoin="round" d="M16.5 10.5m-1 0a1 1 0 102 0a1 1 0 10-2 0" />
</svg>
